<mxfile host="app.diagrams.net" agent="Mozilla/5.0 (Windows NT 10.0; Win64; x64; rv:141.0) Gecko/20100101 Firefox/141.0" version="28.0.7">
  <diagram name="第 1 页" id="-1CRMZ3ilZ53mN010_KL">
    <mxGraphModel dx="396" dy="211" grid="1" gridSize="10" guides="1" tooltips="1" connect="1" arrows="1" fold="1" page="1" pageScale="1" pageWidth="827" pageHeight="1169" math="0" shadow="0">
      <root>
        <mxCell id="0" />
        <mxCell id="1" parent="0" />
        <mxCell id="aomzPrE-w1fCoq5hA7JI-1" value="Control" style="rounded=0;whiteSpace=wrap;html=1;" vertex="1" parent="1">
          <mxGeometry x="160" y="240" width="80" height="40" as="geometry" />
        </mxCell>
        <mxCell id="aomzPrE-w1fCoq5hA7JI-4" value="" style="shape=trapezoid;perimeter=trapezoidPerimeter;whiteSpace=wrap;html=1;fixedSize=1;size=10;rotation=90;" vertex="1" parent="1">
          <mxGeometry x="178" y="334" width="70" height="25" as="geometry" />
        </mxCell>
        <mxCell id="aomzPrE-w1fCoq5hA7JI-5" value="" style="triangle;whiteSpace=wrap;html=1;" vertex="1" parent="1">
          <mxGeometry x="300" y="336.5" width="20" height="20" as="geometry" />
        </mxCell>
        <mxCell id="aomzPrE-w1fCoq5hA7JI-6" value="" style="triangle;whiteSpace=wrap;html=1;rotation=-180;" vertex="1" parent="1">
          <mxGeometry x="300" y="290" width="20" height="20" as="geometry" />
        </mxCell>
        <mxCell id="aomzPrE-w1fCoq5hA7JI-7" value="" style="shape=waypoint;sketch=0;fillStyle=solid;size=6;pointerEvents=1;points=[];fillColor=none;resizable=0;rotatable=0;perimeter=centerPerimeter;snapToPoint=1;" vertex="1" parent="1">
          <mxGeometry x="350" y="320" width="20" height="20" as="geometry" />
        </mxCell>
      </root>
    </mxGraphModel>
  </diagram>
</mxfile>
